<svg xmlns="http://www.w3.org/2000/svg" viewBox="0 0 128 128" role="img" aria-label="Kwalitec" fill="none">
  <rect x="0" y="0" width="128" height="128" fill="#FF00FF"/>
  <!-- Kwalitec official brand mark — BI-000 hand-built vector (no raster) -->
  <g transform="translate(4, 4) scale(1.12)"><g id="symbol">
  <path id="book" fill="#FFFFFF" d="M1.2 37.8 C1.2 35.8 2.8 34.4 4.8 34.4 H8.5 C9.4 34.4 10.0 35.1 10.0 36.0 V80.8 C10.0 81.6 10.4 82.4 11.2 83.0 C20.5 90.2 30.2 95.8 38.8 99.0 C39.8 99.4 40.4 98.5 39.6 97.6 C31.5 89.8 21.2 84.2 11.8 81.6 H1.2 C0.5 81.6 0.0 81.1 0.0 80.4 V39.0 C0.0 38.3 0.5 37.8 1.2 37.8 Z"/>
  <path id="book-left" fill="#3B4FB8" d="M11.0 25.2 C9.5 25.2 8.6 26.8 9.2 28.2 C12.5 35.0 22.0 40.0 32.5 42.8 C36.5 44.0 39.8 44.2 41.0 43.6 C42.0 43.1 42.0 41.8 41.0 41.0 C34.5 35.8 25.5 30.8 17.5 27.6 C15.0 26.6 13.0 25.2 11.0 25.2 Z"/>
  <path id="k-stem" fill="#3B4FB8" d="M40.0 37.0 C40.0 35.8 40.9 35.0 42.0 35.0 H43.5 C44.6 35.0 45.5 35.8 45.5 37.0 V97.2 C45.5 98.4 44.6 99.2 43.5 99.2 H42.0 C40.9 99.2 40.0 98.4 40.0 97.2 Z"/>
  <path id="k-upper" fill="#3B4FB8" d="M44.5 37.5 C54.0 35.0 68.0 31.5 80.0 31.8 C84.5 32.0 88.5 33.2 88.8 35.5 C89.0 37.2 87.0 38.5 85.0 39.2 C72.0 44.0 60.0 52.0 51.5 60.5 C50.0 62.0 47.5 61.5 46.5 59.5 C45.0 56.0 44.5 50.0 44.5 44.0 C44.5 41.5 44.5 39.0 44.5 37.5 Z"/>
  <path id="k-lower" fill="#3B4FB8" d="M46.0 64.0 C50.0 64.0 54.0 67.5 58.5 73.0 C66.0 82.0 75.0 91.5 83.5 98.0 C84.8 99.0 84.2 100.5 82.6 100.2 C74.0 98.5 66.5 91.5 59.5 83.5 C53.5 76.5 48.5 70.5 45.5 68.0 C44.0 66.8 44.5 64.0 46.0 64.0 Z"/>
  <path id="ascent" fill="#E8B02B" d="M43.2 53.8 C47.0 46.5 52.5 37.5 59.0 29.5 C66.5 20.5 76.0 11.5 87.5 5.0 C94.5 1.2 100.5 -0.2 103.8 0.6 C105.0 0.9 105.2 2.5 104.2 3.2 C98.5 7.2 93.0 12.5 88.0 18.5 C80.5 27.5 74.0 37.0 69.0 45.5 C65.0 52.0 61.5 57.5 58.5 61.5 C57.5 62.8 55.8 62.5 55.2 61.0 C52.0 55.5 48.0 54.5 43.2 53.8 Z"/>
  <circle id="gold-dot" cx="46.4" cy="22.4" r="7.15" fill="#E8B02B"/>
</g>
  </g>
</svg>
