<svg xmlns="http://www.w3.org/2000/svg" viewBox="0 0 365 128" role="img" aria-label="Kwalitec">
  <rect width="100%" height="100%" fill="#FF00FF"/>
  <!-- Kwalitec official brand mark — BI-000 hand-built vector (no raster) -->
  <g id="lockup">
    <g transform="translate(0, 6) scale(1.05)">
    <path id="book" fill="#FFFFFF" d="M1.5 37.5 C1.5 35.6 3.0 34.2 4.9 34.2 H9.2 C10.1 34.2 10.8 34.9 10.8 35.8 V80.0 C18.5 86.5 28.5 93.0 37.8 98.2 C38.9 98.8 39.6 97.6 38.7 96.6 C30.5 89.5 20.8 84.0 12.0 80.5 H1.5 C0.7 80.5 0.2 79.9 0.2 79.1 V39.0 C0.2 38.1 0.7 37.5 1.5 37.5 Z"/>
    <path id="book-left" fill="#3B4FB8" d="M11 24 C9.2 24 8.2 25.8 9 27.4 C12.5 35 23 41 34 44 C38 45.2 41.5 45.5 42.5 44.6 C43.5 43.8 43.2 42.2 42 41.4 C34.5 35.5 24.5 29.5 16.5 26.2 C14.5 25.2 12.8 24 11 24 Z"/>
    <path id="k-mark" fill="#3B4FB8" d="M40 35.5 C40 34.2 41 33.2 42.3 33.2 H45.5 C58 31 72 28.5 83 29.5 C87.5 30 91.5 32.2 91.8 35.5 C92 37.5 90.2 39.2 88 39.8 C76 44.5 65 52.5 57.5 60.5 C55.8 62.2 56.2 65 58.5 67 C68 78 78.5 89.5 87 98 C88.2 99.2 87.4 101 85.5 100.6 C77 98.8 68.5 90.5 61 82 C55 75 50.5 69.5 47.5 66.5 L46.2 69 V97.5 C46.2 99 44.8 100.2 43.2 100.2 H41.5 C39.9 100.2 38.8 99 38.8 97.5 V62 C38.8 55 42 49 48 43.5 C51.5 40.2 54.5 37.5 56.5 35.5 C51 34.5 45.5 34.5 40 35.5 Z"/>
    <path id="ascent" fill="#E8B02B" d="M44.5 54 C48.5 46 55 36 62.5 27 C71 16.5 82.5 7.0 95 1.5 C100.5 -0.8 106.5 -0.2 108.2 1.5 C109.0 2.4 108.5 3.8 107.3 4.3 C100.5 8.2 94 14.0 88 20.8 C79.5 30.5 72 41 66 50.5 C62 57.5 58.5 62.5 55.5 65.5 C54.5 66.7 52.8 66.3 52.2 64.7 C49 58 46.5 55.5 44.5 54 Z"/>
    <circle id="gold-dot" cx="46.4" cy="21.0" r="7.2" fill="#E8B02B"/>
    </g>
    <g transform="translate(130, 0)">
      <text x="0" y="78" fill="#FFFFFF" font-family="Inter, Manrope, Sora, system-ui, sans-serif" font-size="42" font-weight="600" letter-spacing="-0.015em">Kwalitec</text>
      <circle cx="137.5" cy="48" r="4.6" fill="#E8B02B"/>
    </g>
  </g>
</svg>
