<svg xmlns="http://www.w3.org/2000/svg" viewBox="0 0 128 128" role="img" aria-label="Kwalitec">
  <!-- Kwalitec official brand mark — BI-000 hand-built vector (no raster) -->
  <g transform="translate(5, 6) scale(1.08)">
    <path id="book" fill="#FFFFFF" d="M2 38 C2 35.5 4 34 6.5 34 H10 C11 34 11.5 34.8 11.5 35.8 V80 C11.5 81.2 12.2 82.2 13.3 83 C22 90 31.5 95.5 39 98.8 C40.2 99.3 40.8 98.2 40 97.2 C31.5 89.5 21 84 13.5 81 H2 C1 81 0.5 80.2 0.5 79.2 V39.5 C0.5 38.5 1.2 38 2 38 Z"/>
    <path id="book-left" fill="#3B4FB8" d="M11 24 C9.2 24 8.2 25.8 9 27.4 C12.5 35 23 41 34 44 C38 45.2 41.5 45.5 42.5 44.6 C43.5 43.8 43.2 42.2 42 41.4 C34.5 35.5 24.5 29.5 16.5 26.2 C14.5 25.2 12.8 24 11 24 Z"/>
    <path id="k-mark" fill="#3B4FB8" d="M40 35.5 C40 34.2 41 33.2 42.3 33.2 H45.5 C58 31 72 28.5 83 29.5 C87.5 30 91.5 32.2 91.8 35.5 C92 37.5 90.2 39.2 88 39.8 C76 44.5 65 52.5 57.5 60.5 C55.8 62.2 56.2 65 58.5 67 C68 78 78.5 89.5 87 98 C88.2 99.2 87.4 101 85.5 100.6 C77 98.8 68.5 90.5 61 82 C55 75 50.5 69.5 47.5 66.5 L46.2 69 V97.5 C46.2 99 44.8 100.2 43.2 100.2 H41.5 C39.9 100.2 38.8 99 38.8 97.5 V62 C38.8 55 42 49 48 43.5 C51.5 40.2 54.5 37.5 56.5 35.5 C51 34.5 45.5 34.5 40 35.5 Z"/>
    <path id="ascent" fill="#E8B02B" d="M44.5 54 C48.5 46 55 36 62.5 27 C71 16.5 82 7.5 94 2.2 C99.5 -0.2 105.5 -0.5 107.5 1.2 C108.5 2 108.2 3.5 107 4.2 C100.5 8.5 94 14.5 88 21.5 C79.5 31.5 72 42 66 51.5 C62 58 58.5 63 55.5 66 C54.5 67.2 52.8 66.8 52.2 65.2 C49 58.5 46.5 56 44.5 54 Z"/>
    <circle id="gold-dot" cx="46.4" cy="21.0" r="7.2" fill="#E8B02B"/>
  </g>
</svg>
