<svg xmlns="http://www.w3.org/2000/svg" viewBox="0 0 128 128" role="img" aria-label="Kwalitec">
  <!-- Kwalitec official brand mark — BI-000 hand-built vector (no raster) -->
  <g transform="translate(6, 8) scale(1.08)">
    <path id="book" fill="#FFFFFF" d="M1.5 38.0 C1.5 36.0 3.0 34.5 5.0 34.5 H9.0 C9.8 34.5 10.5 35.2 10.5 36.0 V80.5 C10.5 81.5 11.0 82.5 12.0 83.2 C21.0 90.0 30.5 95.5 38.5 98.8 C39.5 99.2 40.2 98.2 39.4 97.3 C31.0 89.5 20.5 84.0 12.5 81.2 H1.5 C0.7 81.2 0.0 80.5 0.0 79.7 V39.5 C0.0 38.7 0.7 38.0 1.5 38.0 Z"/>
    <path id="book-left" fill="#3B4FB8" d="M10.0 24.5 C8.5 24.5 7.5 26.2 8.2 27.6 C11.5 34.5 21.5 40.0 32.0 43.0 C36.5 44.5 40.0 44.8 41.2 44.0 C42.2 43.4 42.0 42.0 41.0 41.2 C34.0 35.5 24.5 30.0 16.5 26.8 C14.0 25.8 12.0 24.5 10.0 24.5 Z"/>
    <path id="k-mark" fill="#3B4FB8" d="M39.5 36.0 C39.5 34.8 40.5 34.0 41.6 34.0 H44.5 C45.5 34.0 46.3 34.6 46.8 35.5 C58.0 33.0 70.0 30.5 81.0 31.0 C85.5 31.2 89.5 32.8 90.0 35.8 C90.3 37.5 88.8 39.0 87.0 39.6 C75.0 44.5 64.5 52.0 57.0 59.5 C55.5 61.0 55.8 63.5 57.8 65.5 C67.0 76.0 77.0 87.5 85.5 96.5 C86.8 97.8 86.0 99.8 84.2 99.6 C76.0 98.2 68.0 90.5 61.0 82.5 C55.5 76.0 51.0 70.5 48.0 67.5 L46.5 70.0 V97.5 C46.5 98.8 45.3 99.8 43.8 99.8 H41.5 C40.0 99.8 39.0 98.8 39.0 97.5 V64.0 C39.0 58.0 41.5 53.0 46.5 48.0 C50.0 44.0 53.0 40.5 55.0 38.0 C50.0 37.0 44.5 36.0 39.5 36.0 Z"/>
    <path id="ascent" fill="#E8B02B" d="M44.0 52.5 C48.0 45.0 54.0 35.5 61.0 27.0 C69.0 17.5 79.0 9.0 90.5 3.5 C97.0 0.5 103.0 -0.5 105.5 0.8 C106.8 1.4 106.8 3.2 105.5 3.8 C99.0 7.5 93.0 13.0 87.5 19.5 C79.5 29.0 72.5 39.0 67.0 48.0 C63.0 54.5 59.5 59.5 56.5 63.0 C55.5 64.2 53.8 63.8 53.2 62.2 C50.0 56.5 47.0 54.5 44.0 52.5 Z"/>
    <circle id="gold-dot" cx="46.4" cy="21.5" r="7.2" fill="#E8B02B"/>
  </g>
</svg>
